# xmcd
#
# Track frame offsets:
#	150
#	23593
#	39948
#	56278
#	70495
#	89386
#	104447
#	121382
#	133415
#	143171
#	155810
#	169219
#	187034
#	202219
#
# Disc length: 2934 seconds
#
# Revision: 0
# Processed by: cddbd v1.5.2PL0 Copyright (c) Steve Scherf et al.
# Submitted via: EasyCDDAExtractor 16.0.6.1
#
DISCID=d10b740e
DTITLE=패티킴 - FINAL CURTAIM - The ONE and ONEY CD3
DYEAR=2012
DGENRE=Country
TTITLE0=The first time I saw your face
TTITLE1=Till
TTITLE2=PADRE
TTITLE3=Without you
TTITLE4=You've got a friend
TTITLE5=If..
TTITLE6=The rose
TTITLE7=Where you lead
TTITLE8=Beautiful
TTITLE9=Help me make it thought the night
TTITLE10=The morning after
TTITLE11=Memory
TTITLE12=Adoro
TTITLE13=My Way
EXTD=
EXTT0=
EXTT1=
EXTT2=
EXTT3=
EXTT4=
EXTT5=
EXTT6=
EXTT7=
EXTT8=
EXTT9=
EXTT10=
EXTT11=
EXTT12=
EXTT13=
PLAYORDER=
